<mxfile host="app.diagrams.net" agent="Mozilla/5.0 (Windows NT 10.0; Win64; x64) AppleWebKit/537.36 (KHTML, like Gecko) Chrome/136.0.0.0 Safari/537.36 Edg/136.0.0.0" version="27.0.9">
  <diagram name="Page-1" id="JIJUU-_U0LN4lLKcb38Y">
    <mxGraphModel dx="1773" dy="940" grid="1" gridSize="10" guides="1" tooltips="1" connect="1" arrows="1" fold="1" page="1" pageScale="1" pageWidth="850" pageHeight="1100" math="0" shadow="0">
      <root>
        <mxCell id="0" />
        <mxCell id="1" parent="0" />
        <mxCell id="wUvt39ZvLq313ZMalpjT-1426" value="User" style="shape=umlActor;verticalLabelPosition=bottom;verticalAlign=top;html=1;outlineConnect=0;" vertex="1" parent="1">
          <mxGeometry x="170" y="130" width="30" height="60" as="geometry" />
        </mxCell>
        <mxCell id="wUvt39ZvLq313ZMalpjT-1427" value="" style="rounded=1;whiteSpace=wrap;html=1;" vertex="1" parent="1">
          <mxGeometry x="450" y="130" width="120" height="60" as="geometry" />
        </mxCell>
        <mxCell id="wUvt39ZvLq313ZMalpjT-1428" value="" style="rounded=1;whiteSpace=wrap;html=1;" vertex="1" parent="1">
          <mxGeometry x="780" y="130" width="120" height="60" as="geometry" />
        </mxCell>
        <mxCell id="wUvt39ZvLq313ZMalpjT-1429" value="" style="endArrow=none;dashed=1;html=1;rounded=0;" edge="1" parent="1" source="wUvt39ZvLq313ZMalpjT-1440" target="wUvt39ZvLq313ZMalpjT-1427">
          <mxGeometry width="50" height="50" relative="1" as="geometry">
            <mxPoint x="510" y="570" as="sourcePoint" />
            <mxPoint x="460" y="240" as="targetPoint" />
          </mxGeometry>
        </mxCell>
        <mxCell id="wUvt39ZvLq313ZMalpjT-1430" value="" style="endArrow=none;dashed=1;html=1;rounded=0;" edge="1" parent="1" source="wUvt39ZvLq313ZMalpjT-1442">
          <mxGeometry width="50" height="50" relative="1" as="geometry">
            <mxPoint x="840" y="570" as="sourcePoint" />
            <mxPoint x="840" y="190" as="targetPoint" />
          </mxGeometry>
        </mxCell>
        <mxCell id="wUvt39ZvLq313ZMalpjT-1431" value="" style="endArrow=none;dashed=1;html=1;rounded=0;" edge="1" parent="1">
          <mxGeometry width="50" height="50" relative="1" as="geometry">
            <mxPoint x="180" y="821.1111111111111" as="sourcePoint" />
            <mxPoint x="184.5" y="190" as="targetPoint" />
          </mxGeometry>
        </mxCell>
        <mxCell id="wUvt39ZvLq313ZMalpjT-1432" value="Home Page" style="text;html=1;align=center;verticalAlign=middle;whiteSpace=wrap;rounded=0;" vertex="1" parent="1">
          <mxGeometry x="480" y="145" width="60" height="30" as="geometry" />
        </mxCell>
        <mxCell id="wUvt39ZvLq313ZMalpjT-1433" value="File API" style="text;html=1;align=center;verticalAlign=middle;whiteSpace=wrap;rounded=0;" vertex="1" parent="1">
          <mxGeometry x="810" y="145" width="60" height="30" as="geometry" />
        </mxCell>
        <mxCell id="wUvt39ZvLq313ZMalpjT-1434" value="" style="endArrow=classic;html=1;rounded=0;" edge="1" parent="1">
          <mxGeometry width="50" height="50" relative="1" as="geometry">
            <mxPoint x="190" y="280" as="sourcePoint" />
            <mxPoint x="505" y="280" as="targetPoint" />
          </mxGeometry>
        </mxCell>
        <mxCell id="wUvt39ZvLq313ZMalpjT-1435" value="" style="endArrow=classic;html=1;rounded=0;" edge="1" parent="1">
          <mxGeometry width="50" height="50" relative="1" as="geometry">
            <mxPoint x="845" y="750" as="sourcePoint" />
            <mxPoint x="515" y="750" as="targetPoint" />
          </mxGeometry>
        </mxCell>
        <mxCell id="wUvt39ZvLq313ZMalpjT-1436" value="" style="endArrow=classic;html=1;rounded=0;" edge="1" parent="1">
          <mxGeometry width="50" height="50" relative="1" as="geometry">
            <mxPoint x="515" y="360" as="sourcePoint" />
            <mxPoint x="185" y="360" as="targetPoint" />
          </mxGeometry>
        </mxCell>
        <mxCell id="wUvt39ZvLq313ZMalpjT-1437" value="Return a PDF as response" style="text;html=1;align=center;verticalAlign=middle;whiteSpace=wrap;rounded=0;" vertex="1" parent="1">
          <mxGeometry x="580" y="710" width="170" height="30" as="geometry" />
        </mxCell>
        <mxCell id="wUvt39ZvLq313ZMalpjT-1438" value="Press &quot;Show History&quot; button" style="text;html=1;align=center;verticalAlign=middle;whiteSpace=wrap;rounded=0;" vertex="1" parent="1">
          <mxGeometry x="255" y="240" width="170" height="30" as="geometry" />
        </mxCell>
        <mxCell id="wUvt39ZvLq313ZMalpjT-1439" value="" style="endArrow=none;dashed=1;html=1;rounded=0;" edge="1" parent="1" target="wUvt39ZvLq313ZMalpjT-1440" source="wUvt39ZvLq313ZMalpjT-1450">
          <mxGeometry width="50" height="50" relative="1" as="geometry">
            <mxPoint x="510" y="820" as="sourcePoint" />
            <mxPoint x="510" y="190" as="targetPoint" />
          </mxGeometry>
        </mxCell>
        <mxCell id="wUvt39ZvLq313ZMalpjT-1440" value="" style="html=1;points=[[0,0,0,0,5],[0,1,0,0,-5],[1,0,0,0,5],[1,1,0,0,-5]];perimeter=orthogonalPerimeter;outlineConnect=0;targetShapes=umlLifeline;portConstraint=eastwest;newEdgeStyle={&quot;curved&quot;:0,&quot;rounded&quot;:0};" vertex="1" parent="1">
          <mxGeometry x="505" y="240" width="10" height="410" as="geometry" />
        </mxCell>
        <mxCell id="wUvt39ZvLq313ZMalpjT-1441" value="" style="endArrow=none;dashed=1;html=1;rounded=0;" edge="1" parent="1" target="wUvt39ZvLq313ZMalpjT-1442">
          <mxGeometry width="50" height="50" relative="1" as="geometry">
            <mxPoint x="840" y="820" as="sourcePoint" />
            <mxPoint x="840" y="190" as="targetPoint" />
          </mxGeometry>
        </mxCell>
        <mxCell id="wUvt39ZvLq313ZMalpjT-1442" value="" style="html=1;points=[[0,0,0,0,5],[0,1,0,0,-5],[1,0,0,0,5],[1,1,0,0,-5]];perimeter=orthogonalPerimeter;outlineConnect=0;targetShapes=umlLifeline;portConstraint=eastwest;newEdgeStyle={&quot;curved&quot;:0,&quot;rounded&quot;:0};" vertex="1" parent="1">
          <mxGeometry x="835" y="615" width="10" height="180" as="geometry" />
        </mxCell>
        <mxCell id="wUvt39ZvLq313ZMalpjT-1443" value="" style="endArrow=classic;html=1;rounded=0;" edge="1" parent="1">
          <mxGeometry width="50" height="50" relative="1" as="geometry">
            <mxPoint x="182.5" y="424.44" as="sourcePoint" />
            <mxPoint x="505" y="424.44" as="targetPoint" />
          </mxGeometry>
        </mxCell>
        <mxCell id="wUvt39ZvLq313ZMalpjT-1444" value="Open perscription history pop up window" style="text;html=1;align=center;verticalAlign=middle;whiteSpace=wrap;rounded=0;" vertex="1" parent="1">
          <mxGeometry x="250" y="320" width="170" height="30" as="geometry" />
        </mxCell>
        <mxCell id="wUvt39ZvLq313ZMalpjT-1445" value="Press &quot;View&quot; link of an existing perscription" style="text;html=1;align=center;verticalAlign=middle;whiteSpace=wrap;rounded=0;" vertex="1" parent="1">
          <mxGeometry x="250" y="390" width="170" height="30" as="geometry" />
        </mxCell>
        <mxCell id="wUvt39ZvLq313ZMalpjT-1446" value="" style="endArrow=classic;html=1;rounded=0;" edge="1" parent="1">
          <mxGeometry width="50" height="50" relative="1" as="geometry">
            <mxPoint x="505" y="630" as="sourcePoint" />
            <mxPoint x="835" y="630" as="targetPoint" />
          </mxGeometry>
        </mxCell>
        <mxCell id="wUvt39ZvLq313ZMalpjT-1447" value="Search about perscription file" style="text;html=1;align=center;verticalAlign=middle;whiteSpace=wrap;rounded=0;" vertex="1" parent="1">
          <mxGeometry x="590" y="590" width="170" height="30" as="geometry" />
        </mxCell>
        <mxCell id="wUvt39ZvLq313ZMalpjT-1448" value="" style="endArrow=classic;html=1;rounded=0;" edge="1" parent="1">
          <mxGeometry width="50" height="50" relative="1" as="geometry">
            <mxPoint x="505" y="800" as="sourcePoint" />
            <mxPoint x="175" y="800" as="targetPoint" />
          </mxGeometry>
        </mxCell>
        <mxCell id="wUvt39ZvLq313ZMalpjT-1449" value="Display perscription into a new browser" style="text;html=1;align=center;verticalAlign=middle;whiteSpace=wrap;rounded=0;" vertex="1" parent="1">
          <mxGeometry x="220" y="765" width="200" height="30" as="geometry" />
        </mxCell>
        <mxCell id="wUvt39ZvLq313ZMalpjT-1451" value="" style="endArrow=none;dashed=1;html=1;rounded=0;" edge="1" parent="1" target="wUvt39ZvLq313ZMalpjT-1450">
          <mxGeometry width="50" height="50" relative="1" as="geometry">
            <mxPoint x="510" y="820" as="sourcePoint" />
            <mxPoint x="510" y="650" as="targetPoint" />
          </mxGeometry>
        </mxCell>
        <mxCell id="wUvt39ZvLq313ZMalpjT-1450" value="" style="html=1;points=[[0,0,0,0,5],[0,1,0,0,-5],[1,0,0,0,5],[1,1,0,0,-5]];perimeter=orthogonalPerimeter;outlineConnect=0;targetShapes=umlLifeline;portConstraint=eastwest;newEdgeStyle={&quot;curved&quot;:0,&quot;rounded&quot;:0};" vertex="1" parent="1">
          <mxGeometry x="505" y="730" width="10" height="90" as="geometry" />
        </mxCell>
      </root>
    </mxGraphModel>
  </diagram>
</mxfile>
